<svg width="20" height="20" viewBox="0 0 20 20" fill="none" xmlns="http://www.w3.org/2000/svg">
<g id="Calendar">
<path id="icon" fill-rule="evenodd" clip-rule="evenodd" d="M6.66665 1.54166C7.08086 1.54166 7.41665 1.87745 7.41665 2.29166V3H12.5833V2.29166C12.5833 1.87745 12.9191 1.54166 13.3333 1.54166C13.7475 1.54166 14.0833 1.87745 14.0833 2.29166V3L15.4166 3C16.5212 3 17.4166 3.89543 17.4166 5V7.5V15.8333C17.4166 16.9379 16.5212 17.8333 15.4166 17.8333H4.58331C3.47874 17.8333 2.58331 16.9379 2.58331 15.8333V7.5V5C2.58331 3.89543 3.47874 3 4.58331 3L5.91665 3V2.29166C5.91665 1.87745 6.25243 1.54166 6.66665 1.54166ZM6.66665 4.5H4.58331C4.30717 4.5 4.08331 4.72386 4.08331 5V6.75H15.9166V5C15.9166 4.72386 15.6928 4.5 15.4166 4.5H13.3333H6.66665ZM15.9166 8.25H4.08331V15.8333C4.08331 16.1095 4.30717 16.3333 4.58331 16.3333H15.4166C15.6928 16.3333 15.9166 16.1095 15.9166 15.8333V8.25Z" fill="#344054"/>
</g>
</svg>
