<svg width="32" height="32" viewBox="0 0 32 32" fill="none" xmlns="http://www.w3.org/2000/svg">
<g id="FR" clip-path="url(#clip0_100_1191)">
<path id="Vector" d="M16 32C24.8366 32 32 24.8366 32 16C32 7.16344 24.8366 0 16 0C7.16344 0 0 7.16344 0 16C0 24.8366 7.16344 32 16 32Z" fill="#F0F0F0"/>
<path id="Vector_2" d="M31.9999 15.9999C31.9999 9.12049 27.6579 3.2558 21.5651 0.995117V31.0048C27.6579 28.7441 31.9999 22.8794 31.9999 15.9999Z" fill="#D80027"/>
<path id="Vector_3" d="M0.000579834 16.001C0.000579834 22.8805 4.34264 28.7452 10.4354 31.0058V0.996216C4.34264 3.2569 0.000579834 9.12159 0.000579834 16.001Z" fill="#0052B4"/>
</g>
<defs>
<clipPath id="clip0_100_1191">
<rect width="32" height="32" fill="white"/>
</clipPath>
</defs>
</svg>
