<svg width="12" height="12" viewBox="0 0 12 12" fill="none" xmlns="http://www.w3.org/2000/svg">
<g id="long-arrow-up">
<path id="icon" fill-rule="evenodd" clip-rule="evenodd" d="M5.56462 1.62394C5.70193 1.47073 5.90135 1.37433 6.12329 1.37433C6.1236 1.37433 6.12391 1.37433 6.12422 1.37433C6.31631 1.37416 6.50845 1.44732 6.65505 1.59381L9.65514 4.59181C9.94814 4.8846 9.94831 5.35947 9.65552 5.65247C9.36273 5.94546 8.88785 5.94563 8.59486 5.65284L6.87329 3.93248L6.87329 10.125C6.87329 10.5392 6.53751 10.875 6.12329 10.875C5.70908 10.875 5.37329 10.5392 5.37329 10.125L5.37329 3.93579L3.65516 5.65282C3.36218 5.94562 2.8873 5.94547 2.5945 5.65249C2.3017 5.3595 2.30185 4.88463 2.59484 4.59183L5.56462 1.62394Z" fill="#027A48"/>
</g>
</svg>
