<svg width="20" height="20" viewBox="0 0 20 20" fill="none" xmlns="http://www.w3.org/2000/svg">
<g id="menu-fries-left">
<path id="icon" fill-rule="evenodd" clip-rule="evenodd" d="M2.58334 5C2.58334 4.58579 2.91913 4.25 3.33334 4.25H16.6667C17.0809 4.25 17.4167 4.58579 17.4167 5C17.4167 5.41421 17.0809 5.75 16.6667 5.75L3.33334 5.75C2.91913 5.75 2.58334 5.41422 2.58334 5ZM2.58334 15C2.58334 14.5858 2.91913 14.25 3.33334 14.25L16.6667 14.25C17.0809 14.25 17.4167 14.5858 17.4167 15C17.4167 15.4142 17.0809 15.75 16.6667 15.75L3.33334 15.75C2.91913 15.75 2.58334 15.4142 2.58334 15ZM3.33334 9.25C2.91913 9.25 2.58334 9.58579 2.58334 10C2.58334 10.4142 2.91913 10.75 3.33334 10.75L10 10.75C10.4142 10.75 10.75 10.4142 10.75 10C10.75 9.58579 10.4142 9.25 10 9.25L3.33334 9.25Z" fill="#667085"/>
</g>
</svg>
